HIERARCHY
ROOT pelvis
{
  OFFSET 0 100 0
  CHANNELS 6 Xposition Yposition Zposition Zrotation Xrotation Yrotation
  JOINT pelvis_right_femur
  {
    OFFSET -10.78128 -3.44521 -0.5502486
    CHANNELS 3 Zrotation Xrotation Yrotation
    JOINT right_femur_tibia
    {
      OFFSET -0.8047443 -44.0398 -0.1307829
      CHANNELS 3 Zrotation Xrotation Yrotation
      JOINT right_tibia_foot
      {
        OFFSET 3.006224 -47.83518 -5
        CHANNELS 3 Zrotation Xrotation Yrotation
        End Site
        {
          OFFSET 0 -5 15
        }
      }
    }
  }
  JOINT pelvis_left_femur
  {
    OFFSET 10.78128 -3.44521 -0.5502486
    CHANNELS 3 Zrotation Xrotation Yrotation
    JOINT left_femur_tibia
    {
      OFFSET 0.8047443 -44.0398 -0.1307829
      CHANNELS 3 Zrotation Xrotation Yrotation
      JOINT left_tibia_foot
      {
        OFFSET -4.370144 -48.10324 -4.275266
        CHANNELS 3 Zrotation Xrotation Yrotation
        End Site
        {
          OFFSET 0 -5 15
        }
      }
    }
  }
  JOINT pelvis_spine1
  {
    OFFSET 0 6.468898 -3.129235
    CHANNELS 3 Zrotation Xrotation Yrotation
    JOINT spine1
    {
      OFFSET 0 23.15396 4.99043
      CHANNELS 3 Zrotation Xrotation Yrotation
      JOINT spine2
      {
        OFFSET 0 20.79997 -5.064912
        CHANNELS 3 Zrotation Xrotation Yrotation
        JOINT neck
        {
          OFFSET 0 14.38658 9.616178
          CHANNELS 3 Zrotation Xrotation Yrotation
          End Site
          {
            OFFSET 0 20 0
          }
        }
      }
      JOINT right_manubrium
      {
        OFFSET -5.722621 16.35077 3.967754
        CHANNELS 3 Zrotation Xrotation Yrotation
        JOINT right_clavicle
        {
          OFFSET -13.16364 1.694482 -4.693211
          CHANNELS 3 Zrotation Xrotation Yrotation
          JOINT right_humerus
          {
            OFFSET -28.5034 -0.3100689 -2.792744
            CHANNELS 3 Zrotation Xrotation Yrotation
            JOINT right_radius
            {
              OFFSET -25.15693 0.02248979 -1.271978
              CHANNELS 3 Zrotation Xrotation Yrotation
              End Site
              {
                OFFSET -15 0 0
              }
            }
          }
        }
      }
      JOINT left_manubrium
      {
        OFFSET 5.722621 16.35077 3.967754
        CHANNELS 3 Zrotation Xrotation Yrotation
        JOINT left_clavicle
        {
          OFFSET 13.16364 1.694482 -4.693211
          CHANNELS 3 Zrotation Xrotation Yrotation
          JOINT left_humerus
          {
            OFFSET 29.39168 -1.063119 -2.237045
            CHANNELS 3 Zrotation Xrotation Yrotation
            JOINT left_radius
            {
              OFFSET 24.59957 -0.9528479 0.9047498
              CHANNELS 3 Zrotation Xrotation Yrotation
              End Site
              {
                OFFSET 15 -0 -0
              }
            }
          }
        }
      }
    }
  }
}
MOTION
Frames: 21
Frame Time: 0.0416666666667
0 103.5113 0 2.178094 -1.18551 0.2754259 1.257516 -10.11442 8.723774 -0 34.50685 -0 -5.260718 -17.94362 -2.369115 -8.031838 10.08842 -23.5003 -0 5.13518 -0 7.673437 -16.16939 26.57214 -4.336581 -5.047242 4.95259 2.017275 9.220723 -7.74777 0.8332348 22.80408 7.183257 3.255091 -23.10766 8.816129 6.372282 -19.75879 11.57859 86.31379 35.9491 -19.7946 -0 0 16.25302 -7.581031 8.245293 4.618857 5.504519 -19.49104 -1.687604 -94.77278 29.73649 22.91673 0 0 -16.03354 3.525961 17.8774 9.542265
0.3382005 103.4112 1.37967 2.032489 -1.026247 0.4399167 1.525714 -11.14846 8.561681 -0 33.8794 -0 -5.272752 -17.46141 -2.32554 -7.901 10.21701 -23.35708 -0 5.182244 -0 7.51671 -16.48687 26.37333 -4.287519 -4.846709 4.913235 2.11787 9.200124 -7.766302 0.8526398 22.66629 7.21454 3.28981 -23.25433 8.852909 6.349541 -19.68412 11.58605 86.31005 35.93417 -19.87404 -0 0 16.11952 -7.625684 8.283847 4.636651 5.615214 -19.55003 -1.679144 -94.65413 29.67434 22.70993 0 0 -16.45702 3.637541 17.74613 9.465263
0.7072753 103.2276 2.907921 1.863003 -0.7326158 0.4962047 1.821271 -12.61923 8.191585 -0 31.77974 -0 -5.236352 -16.5658 -1.972101 -7.772825 10.39122 -23.08723 -0 5.28968 -0 7.256573 -16.99347 26.02006 -4.278687 -4.568238 4.924258 2.314237 9.158069 -7.755603 0.8945091 22.41362 7.246373 3.354377 -23.47114 8.886136 6.294386 -19.51957 11.60119 86.31999 35.91553 -20.06006 -0 0 15.83537 -7.687333 8.34695 4.644931 5.85995 -19.63931 -1.674112 -94.46745 29.58119 22.28911 0 0 -17.26017 3.817672 17.56915 9.29883
1.128685 102.9036 4.658887 1.727757 -0.3043021 0.4498614 2.046235 -14.35712 7.59117 -0 27.88705 -0 -5.142607 -15.22305 -1.265636 -7.713691 10.62201 -22.66559 -0 5.524502 -0 6.878527 -17.66499 25.47249 -4.331997 -4.261787 5.011762 2.575756 9.099233 -7.683186 0.9660087 22.0795 7.267181 3.448412 -23.72699 8.910472 6.186717 -19.24692 11.61149 86.36937 35.89217 -20.36972 -0 0 15.38784 -7.766329 8.437062 4.644578 6.241589 -19.7891 -1.657644 -94.19239 29.4716 21.63206 0 0 -18.42306 4.038067 17.3522 9.043195
1.613466 102.394 6.694815 1.68096 0.2284133 0.3798854 2.117202 -16.11242 6.791182 -0 22.36256 -0 -5.013992 -13.51052 -0.2856601 -7.777536 10.93436 -22.07898 -0 5.982024 -0 6.363839 -18.43141 24.69241 -4.439797 -3.993615 5.164152 2.834015 9.035286 -7.538267 1.060153 21.73994 7.272995 3.560803 -23.97016 8.924552 6.012775 -18.87475 11.59241 86.49199 35.86232 -20.79043 -0 0 14.80021 -7.864069 8.556328 4.646543 6.71475 -20.03123 -1.609415 -93.81059 29.36322 20.77651 0 0 -19.80109 4.248944 17.09582 8.736427
2.154183 101.7084 9.081385 1.70937 0.8294652 0.3800409 2.050064 -17.61268 5.868549 -0 15.93396 -0 -4.916506 -11.69268 0.8201539 -7.93291 11.35203 -21.32135 -0 6.778242 -0 5.666215 -19.16615 23.64189 -4.543941 -3.806778 5.288417 3.030624 8.970988 -7.400025 1.129294 21.4666 7.287689 3.666291 -24.1447 8.9205 5.792165 -18.45692 11.5107 86.7207 35.83072 -21.28097 -0 0 14.10999 -7.976571 8.710001 4.665449 7.178297 -20.33799 -1.541843 -93.3438 29.25391 19.84371 0 0 -21.12696 4.407488 16.79829 8.46653
2.729535 100.912 11.89101 1.750627 1.458753 0.5421323 1.930089 -18.60073 4.937121 -0 9.566703 -0 -4.922399 -10.05434 1.904051 -8.091014 11.86007 -20.39942 -0 8.069738 -0 4.723548 -19.69523 22.29404 -4.559778 -3.722089 5.299497 3.145277 8.903752 -7.35197 1.13488 21.28999 7.3309 3.743306 -24.2236 8.891733 5.562424 -18.02972 11.35799 87.07547 35.80237 -21.81401 -0 0 13.34356 -8.102681 8.904037 4.712963 7.519169 -20.65796 -1.488491 -92.84054 29.13566 18.96979 0 0 -22.14863 4.484089 16.46005 8.313785
3.312625 100.1181 15.19869 1.69341 2.063658 0.9556067 1.903448 -18.79133 4.163767 -0 4.473916 -0 -5.11425 -8.852694 2.816602 -8.100898 12.37165 -19.33786 -0 10.12931 -0 3.449833 -19.74269 20.63233 -4.370841 -3.746906 5.157365 3.205954 8.825117 -7.446136 1.067462 21.18487 7.403314 3.779369 -24.22081 8.835042 5.375362 -17.58349 11.16978 87.55994 35.78075 -22.3931 -0 0 12.50707 -8.250932 9.145854 4.797901 7.614258 -20.92293 -1.5027 -92.38249 29.00071 18.2987 0 0 -22.65465 4.457376 16.08333 8.334762
3.884625 99.472 19.0562 1.47393 2.603852 1.63275 2.032158 -17.97133 3.647992 -0 1.334905 -0 -5.52266 -8.156219 3.45871 -7.882883 12.72202 -18.18334 -0 13.25273 -0 1.808953 -18.96567 18.68204 -3.91219 -3.891888 4.882258 3.230582 8.740476 -7.670893 0.9291376 21.1209 7.489148 3.765012 -24.14471 8.736021 5.249722 -17.12395 10.99018 88.13798 35.76881 -22.98544 -0 0 11.62863 -8.441343 9.437054 4.931035 7.414413 -21.05475 -1.610421 -92.06025 28.8414 17.94883 0 0 -22.55384 4.315504 15.66847 8.543634
4.442671 99.13384 23.467 1.094786 3.011612 2.448086 2.294567 -15.98473 3.418898 -0 0.2907775 -0 -6.131016 -7.934468 3.786442 -7.445578 12.65936 -16.99381 -0 17.79212 -0 -0.1489275 -16.98905 16.53811 -3.177986 -4.15511 4.556999 3.216543 8.677271 -7.95152 0.7242209 21.08499 7.562522 3.690796 -23.98261 8.568742 5.178913 -16.67764 10.86985 88.74122 35.77195 -23.51347 -0 0 10.76501 -8.704454 9.775252 5.128674 6.934768 -20.97986 -1.805764 -91.95916 28.64954 18.00936 0 0 -21.85105 4.053214 15.21566 8.923688
4.99863 99.20987 28.36134 0.6854473 3.084317 3.157066 2.620046 -12.87631 3.419238 -0 0.5554756 -0 -6.816856 -8.257436 3.917196 -6.980253 11.84091 -15.81682 -0 24.08144 -0 -2.176221 -13.70249 14.42561 -2.292797 -4.437567 4.377113 3.13336 8.708836 -8.11266 0.4583841 21.1274 7.598272 3.554239 -23.68092 8.307462 5.151509 -16.28133 10.87111 89.28143 35.79835 -23.85287 -0 0 10.00987 -9.073617 10.15404 5.413362 6.269545 -20.72039 -2.034838 -92.07797 28.42397 18.44601 0 0 -20.712 3.687618 14.73952 9.416783
5.566325 99.73246 33.59549 0.4395494 2.652129 3.50888 2.866671 -8.717954 3.53092 -0 1.160453 -0 -7.434351 -9.188354 4.004349 -6.649332 9.898952 -14.67184 -0 32.11413 -0 -3.951941 -9.417164 12.6304 -1.461844 -4.612501 4.529565 2.956216 8.897332 -8.002524 0.1568158 21.30849 7.570196 3.371118 -23.19931 7.939726 5.170332 -15.98396 11.03416 89.65559 35.85941 -23.87471 -0 0 9.455778 -9.586189 10.56321 5.807418 5.527321 -20.349 -2.241647 -92.35999 28.16432 19.16143 0 0 -19.35861 3.250235 14.26027 9.950847
6.158435 100.6297 38.96251 0.5796912 1.683144 3.47161 2.77144 -3.48433 3.577874 -0 1.335273 -0 -7.842694 -10.68359 4.179026 -6.445795 6.431811 -13.53913 -0 41.1518 -0 -5.138349 -5.128383 11.46825 -0.9890588 -4.571132 5.124774 2.685964 9.251804 -7.574892 -0.1110385 21.66773 7.442447 3.189256 -22.54864 7.474934 5.265783 -15.86547 11.3469 89.72087 35.9693 -23.44575 -0 0 9.186877 -10.2976 10.98611 6.334055 4.806931 -19.97108 -2.392282 -92.69686 27.86912 20.01675 0 0 -18.03824 2.790022 13.80052 10.44522
6.773314 101.7719 44.2601 1.164675 0.3017164 3.194669 2.212113 2.632411 3.516657 -0 0.7339525 -0 -7.952289 -12.53617 4.504267 -6.307768 1.39245 -12.44447 -0 49.89584 -0 -5.66136 -1.702777 10.99543 -1.017111 -4.310052 6.111459 2.328167 9.707754 -6.889169 -0.2919938 22.19347 7.201035 3.044741 -21.75686 6.939456 5.400553 -15.99903 11.73422 89.36417 36.12354 -22.4756 -0 0 9.287373 -11.26297 11.39681 7.011776 4.209148 -19.64847 -2.449372 -93.00141 27.53408 20.90734 0 0 -16.92849 2.355208 13.37359 10.84333
7.397239 103.0013 49.35921 2.112356 -1.240449 2.89477 1.202363 9.20593 3.409703 0 -0.6671086 0 -7.714072 -14.42029 4.98915 -6.167567 -4.922699 -11.44156 -0 56.57047 -0 -5.607614 0.279138 11.13423 -1.517974 -3.922156 7.304227 1.889254 10.14458 -6.078624 -0.3594648 22.82707 6.857139 2.953416 -20.86098 6.374063 5.464109 -16.44839 12.07441 88.49979 36.29182 -20.90198 -0 0 9.858433 -12.53984 11.75989 7.858603 3.843903 -19.39302 -2.369297 -93.21776 27.1546 21.77002 0 0 -16.13591 1.986142 12.9835 11.11492
8.038849 104.1174 54.2367 3.213568 -2.668338 2.715095 -0.06657178 15.74324 3.348706 0 -2.594306 0 -7.154288 -16.16548 5.584511 -5.882712 -11.87843 -10.4771 -0 59.81163 -0 -5.160186 0.9742295 11.84152 -2.295606 -3.541744 8.468977 1.383355 10.47164 -5.264808 -0.3469744 23.46782 6.468673 2.893532 -19.93069 5.834401 5.354338 -17.19293 12.29455 87.15323 36.41437 -18.76517 -0 0 10.95201 -14.13292 12.04638 8.875033 3.742662 -19.14796 -2.172565 -93.36495 26.74735 22.61963 0 0 -15.5918 1.663571 12.62206 11.29868
8.734636 104.8968 58.95938 4.211707 -3.754692 2.672582 -1.324583 21.79956 3.365265 0 -4.655085 0 -6.342217 -17.73311 6.216578 -5.276128 -18.73208 -9.394974 -0 58.81489 -0 -4.530675 0.8943401 13.1018 -3.089577 -3.28159 9.40135 0.8434768 10.63409 -4.541027 -0.3099607 24.00164 6.10776 2.831093 -19.04345 5.374118 5.014769 -18.16063 12.36841 85.42536 36.42406 -16.17883 -0 0 12.55861 -15.99932 12.23506 10.0392 3.871452 -18.84434 -1.915267 -93.4896 26.33611 23.48796 0 0 -15.15126 1.344513 12.2756 11.46171
9.523613 105.1514 63.61202 4.8246 -4.401983 2.688991 -2.238002 27.06439 3.394488 0 -6.397191 0 -5.374173 -19.21619 6.81217 -4.182289 -24.74046 -7.963138 -0 53.66008 -0 -3.956742 0.6813234 14.85225 -3.63126 -3.193837 10.00472 0.3432837 10.62164 -3.959673 -0.2930919 24.31253 5.83453 2.743376 -18.26706 5.030396 4.49214 -19.23628 12.33272 83.49026 36.27009 -13.34147 -0 0 14.55956 -18.02834 12.31885 11.28833 4.112778 -18.45335 -1.675564 -93.6297 25.94247 24.36773 0 0 -14.65169 0.9890943 11.92929 11.6754
10.43557 104.7988 68.27058 4.951939 -4.647425 2.689606 -2.661692 31.42646 3.356515 0 -7.47081 0 -4.319643 -20.64826 7.333709 -2.640925 -29.49046 -6.146038 -0 45.27583 -0 -3.509802 0.6039389 16.83798 -3.821565 -3.255838 10.28805 -0.06359091 10.4691 -3.54479 -0.3047042 24.36169 5.67067 2.633017 -17.64231 4.816276 3.885862 -20.32261 12.23205 81.52872 35.93819 -10.47688 -0 0 16.76283 -20.09416 12.306 12.53685 4.342185 -17.99189 -1.513653 -93.79278 25.58283 25.22844 0 0 -13.9804 0.5823087 11.57461 11.98251
11.48942 103.9401 73.00606 4.708476 -4.632606 2.659313 -2.72719 34.92596 3.265205 0 -7.580401 0 -3.21458 -21.92387 7.77588 -1.034392 -32.88081 -4.273098 -0 35.42919 -0 -3.061581 0.5204043 18.5924 -3.753051 -3.393262 10.35455 -0.3553491 10.25007 -3.298114 -0.3126891 24.19322 5.600379 2.531066 -17.1879 4.725885 3.336321 -21.33863 12.10496 79.72405 35.45305 -7.840809 -0 0 18.90069 -22.06188 12.22326 13.67752 4.440104 -17.51425 -1.466494 -93.95754 25.27204 26.02382 0 0 -13.07016 0.1313019 11.20904 12.3999
12.70048 102.8188 77.92266 4.346851 -4.498261 2.5285 -2.826758 37.6379 3.308132 0 -6.471186 0 -2.071436 -22.71799 8.149937 0.05000559 -34.93052 -2.984366 -0 26.2267 -0 -2.52172 0.2598655 19.81282 -3.650319 -3.591085 10.37714 -0.5530686 10.03283 -3.160365 -0.2687825 23.90127 5.586667 2.479206 -16.88589 4.737995 2.952605 -22.19554 11.96207 78.25036 34.87127 -5.68888 -0 0 20.72673 -23.83141 12.11688 14.63204 4.357613 -17.06266 -1.515392 -94.10469 25.01629 26.7211 0 0 -11.93486 -0.3508697 10.83448 12.91559
